HIERARCHY
ROOT Hips
{
	OFFSET 0.000000 100.481300 0.000000
	CHANNELS 6 Xposition Yposition Zposition Xrotation Yrotation Zrotation
	JOINT Spine
	{
		OFFSET -0.279200 12.230698 -2.892100
		CHANNELS 3 Xrotation Yrotation Zrotation
		JOINT Spine1
		{
			OFFSET -0.325700 14.269203 -3.374200
			CHANNELS 3 Xrotation Yrotation Zrotation
			JOINT Spine2
			{
				OFFSET -0.372300 16.307602 -0.352600
				CHANNELS 3 Xrotation Yrotation Zrotation
				JOINT Neck
				{
					OFFSET -0.418800 17.814194 8.416900
					CHANNELS 3 Xrotation Yrotation Zrotation
					JOINT Head
					{
						OFFSET 0.000000 7.031097 3.806800
						CHANNELS 3 Xrotation Yrotation Zrotation
						JOINT HeadTop_End
						{
							OFFSET 0.000000 24.646606 12.978600
							CHANNELS 3 Xrotation Yrotation Zrotation
							End Site
							{
								OFFSET 0.000000 27.854965 0.000000
							}
						}
					}
				}
				JOINT LeftShoulder
				{
					OFFSET 16.952999 14.495407 -7.737500
					CHANNELS 3 Xrotation Yrotation Zrotation
					JOINT LeftArm
					{
						OFFSET 9.308998 -2.777710 0.208600
						CHANNELS 3 Xrotation Yrotation Zrotation
						JOINT LeftForeArm
						{
							OFFSET 29.972298 0.000000 0.000000
							CHANNELS 3 Xrotation Yrotation Zrotation
							JOINT LeftHand
							{
								OFFSET 26.026505 0.000000 0.000000
								CHANNELS 3 Xrotation Yrotation Zrotation
								JOINT LeftHandThumb1
								{
									OFFSET 12.240501 -7.147949 9.207150
									CHANNELS 3 Xrotation Yrotation Zrotation
									JOINT LeftHandThumb2
									{
										OFFSET 4.138618 -2.389435 2.389433
										CHANNELS 3 Xrotation Yrotation Zrotation
										JOINT LeftHandThumb3
										{
											OFFSET 2.726913 -1.574387 1.574386
											CHANNELS 3 Xrotation Yrotation Zrotation
											JOINT LeftHandThumb4
											{
												OFFSET 3.941010 -2.275345 2.275342
												CHANNELS 3 Xrotation Yrotation Zrotation
												End Site
												{
													OFFSET -0.005798 5.087799 0.009903
												}
											}
										}
									}
								}
								JOINT LeftHandIndex1
								{
									OFFSET 24.424698 -1.985611 5.953459
									CHANNELS 3 Xrotation Yrotation Zrotation
									JOINT LeftHandIndex2
									{
										OFFSET 6.426697 0.000000 0.000000
										CHANNELS 3 Xrotation Yrotation Zrotation
										JOINT LeftHandIndex3
										{
											OFFSET 5.337898 0.000000 0.000000
											CHANNELS 3 Xrotation Yrotation Zrotation
											JOINT LeftHandIndex4
											{
												OFFSET 4.409401 0.000000 0.000000
												CHANNELS 3 Xrotation Yrotation Zrotation
												End Site
												{
													OFFSET 0.000000 4.409363 0.014373
												}
											}
										}
									}
								}
								JOINT LeftHandMiddle1
								{
									OFFSET 23.810104 0.000000 0.000000
									CHANNELS 3 Xrotation Yrotation Zrotation
									JOINT LeftHandMiddle2
									{
										OFFSET 7.176498 0.000000 0.000000
										CHANNELS 3 Xrotation Yrotation Zrotation
										JOINT LeftHandMiddle3
										{
											OFFSET 6.774902 0.000000 0.000000
											CHANNELS 3 Xrotation Yrotation Zrotation
											JOINT LeftHandMiddle4
											{
												OFFSET 5.403328 0.000000 0.000000
												CHANNELS 3 Xrotation Yrotation Zrotation
												End Site
												{
													OFFSET -0.027702 5.403244 0.017414
												}
											}
										}
									}
								}
								JOINT LeftHandRing1
								{
									OFFSET 22.908401 -0.839279 -6.020567
									CHANNELS 3 Xrotation Yrotation Zrotation
									JOINT LeftHandRing2
									{
										OFFSET 6.337502 0.000000 0.000000
										CHANNELS 3 Xrotation Yrotation Zrotation
										JOINT LeftHandRing3
										{
											OFFSET 5.779297 0.000000 0.000000
											CHANNELS 3 Xrotation Yrotation Zrotation
											JOINT LeftHandRing4
											{
												OFFSET 4.965698 0.000000 0.000000
												CHANNELS 3 Xrotation Yrotation Zrotation
												End Site
												{
													OFFSET 0.000000 4.965668 0.016186
												}
											}
										}
									}
								}
								JOINT LeftHandPinky1
								{
									OFFSET 20.037003 -1.530319 -10.950146
									CHANNELS 3 Xrotation Yrotation Zrotation
									JOINT LeftHandPinky2
									{
										OFFSET 5.254700 0.000000 0.000000
										CHANNELS 3 Xrotation Yrotation Zrotation
										JOINT LeftHandPinky3
										{
											OFFSET 4.810204 0.000000 0.000000
											CHANNELS 3 Xrotation Yrotation Zrotation
											JOINT LeftHandPinky4
											{
												OFFSET 3.647202 0.000000 0.000000
												CHANNELS 3 Xrotation Yrotation Zrotation
												End Site
												{
													OFFSET 0.000000 3.647186 0.011889
												}
											}
										}
									}
								}
							}
						}
					}
				}
				JOINT RightShoulder
				{
					OFFSET -15.141001 14.495407 -7.737500
					CHANNELS 3 Xrotation Yrotation Zrotation
					JOINT RightArm
					{
						OFFSET -9.308998 -2.777710 0.208500
						CHANNELS 3 Xrotation Yrotation Zrotation
						JOINT RightForeArm
						{
							OFFSET -29.972300 0.000000 0.000000
							CHANNELS 3 Xrotation Yrotation Zrotation
							JOINT RightHand
							{
								OFFSET -26.026505 0.000000 0.000000
								CHANNELS 3 Xrotation Yrotation Zrotation
								JOINT RightHandThumb1
								{
									OFFSET -12.240601 -7.148026 9.207092
									CHANNELS 3 Xrotation Yrotation Zrotation
									JOINT RightHandThumb2
									{
										OFFSET -4.138618 -2.389435 2.389433
										CHANNELS 3 Xrotation Yrotation Zrotation
										JOINT RightHandThumb3
										{
											OFFSET -2.726974 -1.574417 1.574421
											CHANNELS 3 Xrotation Yrotation Zrotation
											JOINT RightHandThumb4
											{
												OFFSET -3.941010 -2.275345 2.275343
												CHANNELS 3 Xrotation Yrotation Zrotation
												End Site
												{
													OFFSET 0.005814 5.087799 0.009927
												}
											}
										}
									}
								}
								JOINT RightHandIndex1
								{
									OFFSET -24.424698 -1.985657 5.953444
									CHANNELS 3 Xrotation Yrotation Zrotation
									JOINT RightHandIndex2
									{
										OFFSET -6.426697 0.000000 0.000000
										CHANNELS 3 Xrotation Yrotation Zrotation
										JOINT RightHandIndex3
										{
											OFFSET -5.337898 0.000000 0.000000
											CHANNELS 3 Xrotation Yrotation Zrotation
											JOINT RightHandIndex4
											{
												OFFSET -4.409401 0.000000 0.000000
												CHANNELS 3 Xrotation Yrotation Zrotation
												End Site
												{
													OFFSET 0.000000 4.409363 0.014408
												}
											}
										}
									}
								}
								JOINT RightHandMiddle1
								{
									OFFSET -23.810097 0.000000 0.000000
									CHANNELS 3 Xrotation Yrotation Zrotation
									JOINT RightHandMiddle2
									{
										OFFSET -7.176498 0.000000 0.000000
										CHANNELS 3 Xrotation Yrotation Zrotation
										JOINT RightHandMiddle3
										{
											OFFSET -6.774902 0.000000 0.000000
											CHANNELS 3 Xrotation Yrotation Zrotation
											JOINT RightHandMiddle4
											{
												OFFSET -5.403328 0.000000 0.000000
												CHANNELS 3 Xrotation Yrotation Zrotation
												End Site
												{
													OFFSET 0.027702 5.403244 0.017457
												}
											}
										}
									}
								}
								JOINT RightHandRing1
								{
									OFFSET -22.908302 -0.839325 -6.020576
									CHANNELS 3 Xrotation Yrotation Zrotation
									JOINT RightHandRing2
									{
										OFFSET -6.337502 0.000000 0.000000
										CHANNELS 3 Xrotation Yrotation Zrotation
										JOINT RightHandRing3
										{
											OFFSET -5.779297 0.000000 0.000000
											CHANNELS 3 Xrotation Yrotation Zrotation
											JOINT RightHandRing4
											{
												OFFSET -4.965698 0.000000 0.000000
												CHANNELS 3 Xrotation Yrotation Zrotation
												End Site
												{
													OFFSET 0.000000 4.965668 0.016226
												}
											}
										}
									}
								}
								JOINT RightHandPinky1
								{
									OFFSET -20.037003 -1.530334 -10.950259
									CHANNELS 3 Xrotation Yrotation Zrotation
									JOINT RightHandPinky2
									{
										OFFSET -5.254700 0.000000 0.000000
										CHANNELS 3 Xrotation Yrotation Zrotation
										JOINT RightHandPinky3
										{
											OFFSET -4.810204 0.000000 0.000000
											CHANNELS 3 Xrotation Yrotation Zrotation
											JOINT RightHandPinky4
											{
												OFFSET -3.647202 0.000000 0.000000
												CHANNELS 3 Xrotation Yrotation Zrotation
												End Site
												{
													OFFSET 0.000000 3.647186 0.011917
												}
											}
										}
									}
								}
							}
						}
					}
				}
			}
		}
	}
	JOINT LeftUpLeg
	{
		OFFSET 15.427100 -6.655098 0.678600
		CHANNELS 3 Xrotation Yrotation Zrotation
		JOINT LeftLeg
		{
			OFFSET 4.081073 -39.591068 13.024000
			CHANNELS 3 Xrotation Yrotation Zrotation
			JOINT LeftFoot
			{
				OFFSET -4.081074 -37.707932 -15.979700
				CHANNELS 3 Xrotation Yrotation Zrotation
				JOINT LeftToeBase
				{
					OFFSET 5.346399 -15.068900 20.645000
					CHANNELS 3 Xrotation Yrotation Zrotation
					JOINT LeftToe_End
					{
						OFFSET 2.754700 0.931300 11.300900
						CHANNELS 3 Xrotation Yrotation Zrotation
						End Site
						{
							OFFSET 0.000000 11.669021 0.000000
						}
					}
				}
			}
		}
	}
	JOINT RightUpLeg
	{
		OFFSET -15.569500 -6.655098 0.678600
		CHANNELS 3 Xrotation Yrotation Zrotation
		JOINT RightLeg
		{
			OFFSET -4.081825 -39.591045 13.023800
			CHANNELS 3 Xrotation Yrotation Zrotation
			JOINT RightFoot
			{
				OFFSET 4.081824 -37.707954 -15.979600
				CHANNELS 3 Xrotation Yrotation Zrotation
				JOINT RightToeBase
				{
					OFFSET -5.346400 -15.068900 20.645000
					CHANNELS 3 Xrotation Yrotation Zrotation
					JOINT RightToe_End
					{
						OFFSET -2.754700 0.931300 11.300900
						CHANNELS 3 Xrotation Yrotation Zrotation
						End Site
						{
							OFFSET 0.000000 11.669021 0.000000
						}
					}
				}
			}
		}
	}
}
MOTION
Frames: 5
Frame Time: 0.033333
-6.671227 96.304230 16.652786 3.515798 -5.769460 -7.992428 -0.100647 0.675005 0.872270 0.523782 0.978535 -0.328355 0.523875 0.977414 -0.336015 -13.697059 -2.396851 3.858753 11.361902 1.692688 0.007699 -0.000000 -0.000000 -0.000000 2.184323 -8.013102 -7.305977 6.343557 -24.936845 -45.837574 0.000000 -24.726536 -0.000013 10.902111 -15.020187 9.767836 0.699762 -6.020117 19.223935 25.200202 38.075129 -7.496402 1.639065 -0.239161 4.083142 -0.000001 -0.000001 -0.000001 7.670772 7.992388 -99.209994 1.732948 4.160038 -45.215402 0.335815 1.956718 -19.474558 0.000001 -0.000001 -0.000002 2.261892 6.924947 -51.435945 1.383376 3.782001 -40.170795 0.443842 2.238714 -22.425449 -0.000001 -0.000001 -0.000001 1.924088 6.634909 -46.294551 1.098850 3.417314 -35.641259 0.480571 2.325636 -23.347622 0.000001 -0.000000 -0.000000 4.887220 10.570870 -58.607995 0.379329 2.075624 -20.711429 0.054353 0.797049 -7.802483 -0.000000 -0.000003 -0.000002 2.215358 11.940359 11.400925 -16.427380 5.304254 55.503541 0.000005 23.245246 -0.000005 14.287715 3.434870 -7.881217 -13.495580 -11.552053 -5.371138 14.020605 -23.394395 -6.019635 3.147310 -3.109358 -22.602904 0.000002 -0.000001 -0.000001 1.102197 -5.039582 22.917172 0.537925 -2.174643 27.784277 0.047567 -0.664707 8.187804 -0.000000 -0.000000 -0.000001 -1.222395 -0.326735 23.615166 0.858922 -2.696890 35.326264 0.549421 -2.196321 28.085593 0.000002 0.000003 0.000002 -3.000002 -0.190634 39.298894 0.221056 -1.419188 17.705587 0.284716 -1.604991 20.118097 -0.000005 -0.000000 -0.000000 -2.932594 -0.317171 38.224037 0.435092 -1.967309 24.939324 0.127534 -1.083513 13.424978 0.000001 -0.000001 -0.000001 -14.664833 5.191274 15.019316 21.921373 9.858009 0.037450 -13.337789 -0.326506 -7.464780 7.613835 -0.000003 0.000003 -0.000000 -0.000001 -0.000000 -13.996074 -6.889208 -8.943950 6.764627 2.057597 -2.626855 5.030538 -0.838595 18.372292 -2.014186 0.000001 0.000005 0.000000 -0.000000 0.000000 
-7.197908 96.162643 16.945627 3.444766 -6.461455 -7.220404 -0.182582 0.730348 0.811467 0.411548 1.073707 -0.435017 0.413198 1.076149 -0.442078 -13.610629 -2.240694 3.746305 11.421008 2.214986 -0.327242 0.000000 0.000000 -0.000000 2.119530 -8.343716 -8.036818 7.002324 -23.210368 -48.773066 -0.000005 -23.247729 -0.000018 11.483075 -13.868276 7.614485 0.699760 -6.020113 19.223933 24.227852 36.326184 -6.376095 1.888681 -0.178795 4.507885 -0.000002 0.000003 0.000003 7.021703 8.142718 -93.597531 1.690941 4.118026 -44.633418 0.337547 1.961606 -19.525346 0.000002 -0.000000 -0.000000 2.472348 7.102759 -49.929089 1.391033 3.791031 -40.286682 0.446774 2.245797 -22.500426 -0.000002 0.000001 0.000002 1.988667 6.699879 -45.512183 1.098312 3.416572 -35.632438 0.483083 2.331430 -23.409406 -0.000000 0.000002 -0.000000 4.947541 11.184335 -57.094135 0.396200 2.119666 -21.172126 0.055931 0.808497 -7.915423 -0.000001 -0.000001 -0.000003 2.214103 11.908063 11.425614 -16.125696 4.144412 57.463672 0.000000 19.445887 -0.000009 14.145341 3.060465 -7.217779 -13.495575 -11.552053 -5.371137 13.986957 -23.161767 -6.090399 3.137936 -3.115501 -22.667426 0.000000 -0.000000 -0.000002 1.115969 -5.066975 22.863631 0.537658 -2.174170 27.777343 0.051134 -0.688965 8.488870 -0.000003 0.000001 0.000000 -1.174707 -0.440745 23.633575 0.860046 -2.698466 35.350365 0.549777 -2.196985 28.094981 0.000001 0.000000 -0.000001 -2.878843 -0.351538 39.356964 0.221216 -1.419694 17.711934 0.284838 -1.605285 20.122075 -0.000001 0.000001 -0.000001 -2.905171 -0.394379 38.530091 0.440006 -1.977840 25.082191 0.127419 -1.083114 13.419858 -0.000000 -0.000002 0.000000 -13.980095 5.495433 14.602924 21.674251 9.789466 -0.003347 -13.502940 0.400239 -7.773333 7.760460 -0.000002 -0.000002 0.000001 0.000000 0.000000 -13.474124 -6.937044 -8.909023 7.011067 2.875189 -2.961822 3.032036 -1.050231 18.065676 -2.055655 0.000002 -0.000003 -0.000000 0.000000 0.000000 
-7.788649 96.199516 17.291862 3.439395 -7.152034 -6.435549 -0.249426 0.796862 0.705059 0.306000 1.182998 -0.535478 0.309398 1.189122 -0.541715 -13.601404 -2.067979 3.599571 11.461709 2.774867 -0.615652 0.000000 0.000000 0.000000 2.061344 -8.609743 -8.685169 6.989349 -21.506613 -51.807617 -0.000006 -21.417817 -0.000003 12.114532 -12.437711 5.402102 0.699763 -6.020118 19.223926 23.537826 34.633926 -5.546625 2.117030 -0.296547 4.711291 0.000000 0.000003 -0.000003 6.388983 8.221881 -88.161104 1.650861 4.077130 -44.072581 0.338530 1.964418 -19.554145 0.000000 0.000001 0.000001 2.647424 7.275377 -48.348836 1.398329 3.799622 -40.397188 0.447479 2.247486 -22.518155 -0.000001 0.000001 0.000000 2.159412 6.880817 -44.413732 1.097652 3.415660 -35.621472 0.487150 2.340811 -23.509402 0.000000 -0.000003 0.000002 4.968111 11.790224 -55.596343 0.418665 2.176726 -21.771569 0.057470 0.819452 -8.023106 0.000001 0.000000 -0.000000 2.202267 11.997613 11.471448 -15.488338 3.267463 59.317119 0.000000 15.693068 0.000006 14.161399 2.393906 -6.141366 -13.495577 -11.552048 -5.371137 13.945305 -22.846973 -6.184413 3.125981 -3.133545 -22.746521 -0.000003 0.000001 0.000003 1.093351 -5.029757 22.662882 0.536628 -2.172204 27.750265 0.055624 -0.718438 8.854843 -0.000002 0.000001 0.000001 -1.131128 -0.528921 23.559076 0.860193 -2.698688 35.353592 0.550259 -2.197874 28.107302 0.000000 0.000003 0.000004 -2.757982 -0.495051 39.319589 0.222112 -1.422502 17.748141 0.285493 -1.607096 20.145783 -0.000003 0.000000 -0.000002 -2.844026 -0.473126 38.657744 0.444321 -1.987026 25.207003 0.127180 -1.082060 13.406575 0.000001 -0.000003 -0.000001 -13.055588 5.822415 14.169123 20.776945 9.575535 -0.105095 -13.078669 1.248951 -7.963254 7.561726 -0.000000 -0.000001 0.000000 -0.000000 -0.000000 -13.305606 -7.015107 -8.756434 7.109867 3.723253 -3.195975 0.901212 -1.176582 16.990982 -1.977052 0.000003 -0.000001 -0.000000 -0.000002 -0.000000 
-8.453726 96.333878 17.618269 3.467973 -7.951766 -5.760501 -0.301283 0.852658 0.612898 0.218101 1.274903 -0.584357 0.222840 1.283612 -0.589906 -13.684626 -1.857747 3.414402 11.363189 3.412523 -0.914303 0.000000 -0.000000 0.000000 2.051431 -8.539282 -9.283988 6.266997 -19.969511 -54.841409 0.000002 -19.166412 0.000012 12.466212 -10.746969 3.724489 0.699758 -6.020116 19.223929 21.710438 31.766479 -3.793023 2.385821 -1.000159 4.883152 0.000001 0.000002 -0.000001 5.283089 8.189903 -78.658562 1.591146 4.014685 -43.226287 0.337381 1.961131 -19.520343 -0.000000 -0.000001 0.000001 2.804277 7.496244 -45.464055 1.402074 3.804015 -40.453677 0.444548 2.240411 -22.443325 -0.000000 -0.000000 -0.000000 2.505250 7.294474 -42.344892 1.097163 3.414978 -35.613276 0.491010 2.349659 -23.603541 0.000002 -0.000001 -0.000001 4.894464 12.543189 -53.484896 0.453292 2.261440 -22.665814 0.059686 0.835028 -8.176628 -0.000000 -0.000003 0.000001 2.164849 12.410051 11.542301 -14.472189 2.527143 60.779968 0.000003 12.472901 -0.000016 14.468880 1.812200 -4.579561 -13.495576 -11.552049 -5.371135 13.880619 -22.363677 -6.325488 3.113778 -3.186397 -22.843211 0.000001 0.000001 0.000003 1.022638 -4.904993 22.245687 0.535865 -2.170748 27.730098 0.063362 -0.766451 9.451957 -0.000001 -0.000000 -0.000002 -1.084891 -0.602377 23.357789 0.859546 -2.697764 35.339692 0.550232 -2.197854 28.107021 0.000000 -0.000001 -0.000004 -2.619392 -0.639136 39.149893 0.224136 -1.428797 17.829304 0.286155 -1.608862 20.168920 -0.000003 0.000001 -0.000001 -2.737410 -0.580095 38.704196 0.449460 -1.997899 25.354709 0.126629 -1.079747 13.377239 0.000001 -0.000000 0.000005 -12.069178 6.232824 13.897406 19.504727 9.162299 -0.244247 -12.143431 2.217116 -8.097381 7.088710 0.000004 -0.000003 0.000001 -0.000000 0.000000 -13.257944 -7.171991 -8.613676 7.092592 4.532070 -3.236778 -0.528570 -1.200089 15.784618 -1.772575 0.000002 -0.000003 -0.000000 0.000000 -0.000000 
-9.173514 96.462662 17.910439 3.554404 -8.744104 -5.200358 -0.324247 0.863230 0.568132 0.163291 1.297751 -0.579666 0.168395 1.307457 -0.585062 -13.819500 -1.617977 3.234344 11.076131 4.126766 -1.253270 -0.000000 0.000000 -0.000000 2.092157 -8.179549 -9.774904 5.178130 -18.510543 -57.725036 -0.000014 -16.906465 -0.000031 12.677523 -9.086456 2.677729 0.699760 -6.020119 19.223931 18.539633 28.398306 -1.090566 2.670478 -1.940832 4.858148 -0.000001 -0.000002 -0.000001 3.605288 7.721125 -63.573324 1.515129 3.932441 -42.129423 0.334798 1.953867 -19.444948 0.000001 0.000000 -0.000001 2.833384 7.736455 -40.667018 1.410271 3.813593 -40.577088 0.439860 2.229040 -22.323153 0.000000 0.000003 -0.000000 2.859773 7.834882 -39.510127 1.097109 3.414895 -35.612405 0.495413 2.359700 -23.710631 0.000000 0.000003 -0.000000 4.657896 13.231076 -50.944045 0.503957 2.379039 -23.917243 0.063522 0.861308 -8.436088 0.000001 -0.000003 -0.000000 2.106189 13.161446 11.572124 -13.164461 1.752729 61.862608 -0.000003 10.158277 0.000013 15.025754 1.362540 -2.891883 -13.495576 -11.552048 -5.371137 13.783792 -21.666646 -6.524975 3.106429 -3.299717 -22.939831 -0.000001 0.000000 -0.000000 0.912441 -4.699715 21.736816 0.535601 -2.170252 27.723038 0.076122 -0.839487 10.362304 0.000001 -0.000000 -0.000002 -1.038601 -0.663356 23.071631 0.858353 -2.696088 35.314465 0.549239 -2.195993 28.080969 0.000001 0.000001 0.000002 -2.472690 -0.779916 38.884287 0.227264 -1.438509 17.954752 0.286412 -1.609561 20.177928 0.000000 0.000001 -0.000000 -2.633172 -0.686029 38.761009 0.457951 -2.015703 25.597182 0.125990 -1.077062 13.343450 0.000004 -0.000002 0.000002 -11.217111 6.556407 13.687509 18.220626 8.620013 -0.243806 -10.979422 3.374140 -8.309623 5.260341 -0.000052 0.002352 -0.000001 0.000001 0.000000 -13.295931 -7.401429 -8.568398 7.028619 5.257686 -3.079902 -1.057084 -1.136655 14.952037 -1.489777 0.000007 0.000004 -0.000000 0.000000 0.000000 
